# xmcd
#
# Track frame offsets: 
#        150
#        39793
#        66111
#        77996
#        95078
#        114256
#        176586
#        213861
#        247140
#
# Disc length: 3798 seconds
#
# Revision: 2
# Processed by: cddbd v1.5.2PL0 Copyright (c) Steve Scherf et al.
# Submitted via: ExactAudioCopyFreeDBPlugin 1.0
#
DISCID=740ed409
DTITLE=Diogenes Quartet - Schubert Edition CD12 - String Quartets 7 and 
DTITLE=13, Andante in C D.3
DYEAR=2014
DGENRE=Classical
TTITLE0=String Quartet No.7 in D, D.94 - I. Allegro
TTITLE1=String Quartet No.7 in D, D.94 - II. Andante con moto
TTITLE2=String Quartet No.7 in D, D.94 - III. Menuetto (Allegretto) - 
TTITLE2=Trio
TTITLE3=String Quartet No.7 in D, D.94 - IV. Presto
TTITLE4=Andante in C, D.3 for string quartet
TTITLE5=String Quartet No.13 in A minor, D.804 "Rosamunde" - I. Allegr
TTITLE5=o ma non troppo
TTITLE6=String Quartet No.13 in A minor, D.804 "Rosamunde" - II. Andan
TTITLE6=te
TTITLE7=String Quartet No.13 in A minor, D.804 "Rosamunde" - III. Menu
TTITLE7=etto (Allegretto) - Trio
TTITLE8=String Quartet No.13 in A minor, D.804 "Rosamunde" - IV. Alleg
TTITLE8=ro moderato
EXTD=
EXTT0=
EXTT1=
EXTT2=
EXTT3=
EXTT4=
EXTT5=
EXTT6=
EXTT7=
EXTT8=
PLAYORDER=
